<svg class="svg-icon" style="width: 1em; height: 1em;vertical-align: middle;fill: currentColor;overflow: hidden;"
    viewBox="0 0 1024 1024" version="1.1" xmlns="http://www.w3.org/2000/svg">
    <path
        d="M512 781.587971c-235.254002 0-435.106726-269.587971-435.106726-269.587971s199.852724-269.587971 435.106726-269.587971 435.106726 269.587971 435.106726 269.587971S747.254002 781.587971 512 781.587971zM110.030999 512c33.564443 42.479487 202.717981 243.088434 401.969001 243.088434s368.404558-200.608947 401.969001-243.088434c-33.564443-42.479487-202.719005-243.088434-401.969001-243.088434S143.594419 469.520513 110.030999 512z" />
    <path
        d="M524.008498 716.601888c-112.822578 0-204.608028-91.785449-204.608028-204.602911s91.785449-204.602911 204.608028-204.602911c112.817462 0 204.602911 91.785449 204.602911 204.602911S636.824937 716.601888 524.008498 716.601888zM524.008498 329.23956c-100.776218 0-182.765557 81.984223-182.765557 182.76044s81.989339 182.76044 182.765557 182.76044 182.76044-81.984223 182.76044-182.76044S624.784716 329.23956 524.008498 329.23956z" />
    <path
        d="M627.536386 475.556996c-27.281343 0-49.481971-22.194488-49.481971-49.475831 0-27.2926 22.199605-49.487088 49.481971-49.487088s49.481971 22.194488 49.481971 49.487088C677.017334 453.362508 654.81773 475.556996 627.536386 475.556996zM627.536386 387.514801c-21.261233 0-38.560224 17.298991-38.560224 38.565341 0 21.256116 17.298991 38.555108 38.560224 38.555108s38.560224-17.298991 38.560224-38.555108C666.09661 404.813792 648.797619 387.514801 627.536386 387.514801z" />
    <path
        d="M524.008498 587.893504c-41.850154 0-75.894528-34.043351-75.894528-75.894528s34.043351-75.894528 75.894528-75.894528c41.845037 0 75.888388 34.043351 75.888388 75.894528S565.853535 587.893504 524.008498 587.893504zM524.008498 447.02722c-35.824927 0-64.97278 29.147854-64.97278 64.97278s29.147854 64.97278 64.97278 64.97278 64.967664-29.147854 64.967664-64.97278S559.832402 447.02722 524.008498 447.02722z" />
</svg>